<svg id="Layer_1" data-name="Layer 1" xmlns="http://www.w3.org/2000/svg" xmlns:xlink="http://www.w3.org/1999/xlink" viewBox="0 0 500 500"><defs><style>.cls-1,.cls-17,.cls-5,.cls-6,.cls-7,.cls-8,.cls-9{fill:none;}.cls-10,.cls-15,.cls-2,.cls-20,.cls-22{fill:#fff;}.cls-2{opacity:0.7;}.cls-12,.cls-13,.cls-2{isolation:isolate;}.cls-12,.cls-14,.cls-21,.cls-3{fill:#f8af00;}.cls-18,.cls-4{fill:#263238;}.cls-14,.cls-15,.cls-18,.cls-20,.cls-21,.cls-22,.cls-5,.cls-6,.cls-7,.cls-8,.cls-9{stroke:#263238;}.cls-14,.cls-15,.cls-17,.cls-18,.cls-20,.cls-21,.cls-22,.cls-5,.cls-6,.cls-7,.cls-8,.cls-9{stroke-linecap:round;stroke-linejoin:round;}.cls-6{stroke-width:1px;}.cls-9{stroke-dasharray:2.98 2.98;}.cls-11{clip-path:url(#clip-path);}.cls-12{opacity:0.4;}.cls-13,.cls-16{opacity:0.2;}.cls-17{stroke:#fff;}.cls-19{clip-path:url(#clip-path-2);}.cls-21{stroke-width:1px;}.cls-23{fill:#ec1c24;}</style><clipPath id="clip-path"><path class="cls-1" d="M185.69,433.76s-11.89,8.09-16.68,7.55a2.23,2.23,0,0,1-1.41-.6c-3.12-3.22-5.63-8.88-5.63-8.88s1.49-2.06,6.08,3.41l2.91-2.67-6-6.06s3.39-2.69,9.15.74c-.2-.42-3.91-8.5-1.11-19.5l-14-13.51,12.42-10.82,1-.84,2,2c1.22,1.23,2.91,2.71,4.74,4.32,4.38,3.85,9.68,8,12,8C195.34,396.76,185.69,433.76,185.69,433.76Z"/></clipPath><clipPath id="clip-path-2"><path class="cls-1" d="M392.1,298s-3,22.32-18.29,31.05c-15.12,2.16-32.08-10.38-37.8-25.43-4.52-11.89-.57-25.38,1.59-31.15h0C355.47,262.26,392.1,298,392.1,298Z"/></clipPath></defs><title>registed</title><g id="freepik--background-simple--inject-2"><path class="cls-2" d="M67.93,167.09s-27.88,72,11.3,144.5S199.11,422.39,263.7,455.14s131.66,16.8,163.53-36.84-11.84-91.93-11.9-168.42,11.45-96.74-30-161.36-143.06-78.93-219.9-31S67.93,167.09,67.93,167.09Z"/><path class="cls-3" d="M61.26,184.46c37.82-37.81,69.85-6.09,83.35-56.86,30.48-114.69,156.9-113.6,173.52-32,29.95,147,160.4,53.65,159.43,158.93-1,112.41-83.7,200-232,208.71C112.69,471.1-1.41,247.11,61.26,184.46Z"/><path class="cls-2" d="M61.26,184.46c37.82-37.81,69.85-6.09,83.35-56.86,30.48-114.69,156.9-113.6,173.52-32,29.95,147,160.4,53.65,159.43,158.93-1,112.41-83.7,200-232,208.71C112.69,471.1-1.41,247.11,61.26,184.46Z"/></g><g id="freepik--Discount--inject-2"><path class="cls-4" d="M155.1,120c-.24-2,.67-3.29,2.62-3.52s3.13.78,3.37,2.82l.77,6.51c.23,2-.68,3.29-2.63,3.52s-3.13-.78-3.37-2.82Zm2.75,6.42c.11.88.52,1.2,1.17,1.13s1-.49.87-1.37l-.79-6.79c-.11-.88-.55-1.2-1.17-1.12s-1,.48-.87,1.36Zm7.7-10.71,1.84-.22-5.49,20.72-1.84.22Zm.21,10.39c-.24-2,.68-3.3,2.63-3.52s3.13.78,3.37,2.81l.76,6.51c.24,2-.67,3.29-2.63,3.52s-3.13-.78-3.37-2.82Zm2.76,6.41c.1.88.51,1.21,1.16,1.13s1-.49.88-1.37l-.8-6.79c-.1-.87-.54-1.19-1.16-1.12s-1,.49-.87,1.36Z"/><path class="cls-5" d="M177.16,139.92,154,142.63a2,2,0,0,1-2.22-1.75L149,117a3,3,0,0,1,.85-2.44l9.66-9.51a2.93,2.93,0,0,1,3.59-.42l11.59,7a2.93,2.93,0,0,1,1.39,2.17l2.8,23.88A2,2,0,0,1,177.16,139.92Z"/><path class="cls-5" d="M163.16,107.7a1.49,1.49,0,1,1-1.66-1.3h0A1.48,1.48,0,0,1,163.16,107.7Z"/><path class="cls-5" d="M161.69,91s4.52,17.4,0,16.9"/><path class="cls-5" d="M160.54,104.4c.88-4.84,5.31-13,5.31-13"/><path class="cls-5" d="M161.69,107.87a1.28,1.28,0,0,1-1.15-.93"/><path class="cls-5" d="M181.86,97.43a29.34,29.34,0,0,1,9,12.45"/><path class="cls-5" d="M135.05,112.87a29.32,29.32,0,0,1,44.08-17.4"/><path class="cls-5" d="M144.18,142.35a29.16,29.16,0,0,1-9.75-17.86"/><path class="cls-5" d="M162.29,149.55a29.2,29.2,0,0,1-15-4.85"/><path class="cls-5" d="M192.45,116a29.33,29.33,0,0,1-24.76,33.27"/></g><g id="freepik--Gift--inject-2"><path class="cls-6" d="M89.21,213.58,126,220.71h0l-4.29,22.12a1.65,1.65,0,0,1-1.94,1.31h0l-33.58-6.51a1.66,1.66,0,0,1-1.31-1.94h0l4.29-22.12h0Z"/><path class="cls-7" d="M127.31,221.22l-38.76-7.47h0l1.14-5.89a1.66,1.66,0,0,1,1.94-1.32h0l35.54,6.85a1.66,1.66,0,0,1,1.28,1.91l-1.13,5.89h0Z"/><rect class="cls-8" x="90.45" y="222.93" width="31.92" height="5.37" transform="translate(-135.26 287.4) rotate(-79.09)"/><path class="cls-5" d="M109.43,209.94s9.15-6.68,13.38-4.66,2.14,7.65,0,7.24"/><path class="cls-5" d="M113.05,210.63s7.44-3.7,8.52-2-2.13,3.27-4.6,2.79"/><path class="cls-5" d="M109.68,209.48s3.86-7,3.36-9.26h2.57s.84,2.66-2.16,7.21"/><path class="cls-5" d="M109.43,209.94s-6-9.6-10.69-9.29-4.82,6.3-2.69,6.71"/><path class="cls-5" d="M105.81,209.24s-5.53-6.21-7.16-5.05.77,3.82,3.24,4.29"/><path class="cls-5" d="M109.37,209.42s-1-7.95.33-9.84l-2.4-1s-1.76,2.16-.66,7.5"/><path class="cls-5" d="M136.66,198.7a37.47,37.47,0,0,1,7.71,18"/><path class="cls-5" d="M74,204.7a37.44,37.44,0,0,1,59.81-9.21"/><path class="cls-5" d="M77,244a37.38,37.38,0,0,1-7.1-25"/><path class="cls-5" d="M97.57,258.07a37.26,37.26,0,0,1-17.35-10.28"/><path class="cls-5" d="M144.61,224.8a37.45,37.45,0,0,1-40.23,34.44"/></g><g id="freepik--Megaphone--inject-2"><path class="cls-5" d="M292.73,125.09l-3.14-1.6a9.91,9.91,0,0,0,.46-4.29c1,.48,2.06,1,3,1.43C293,121.92,292.92,123.44,292.73,125.09Z"/><path class="cls-5" d="M297.3,122.69a11.43,11.43,0,0,0,3.16,1.06,28.5,28.5,0,0,1-2.57,18.09c-.81,1.58-9.32-2.78-8.52-4.36a37.65,37.65,0,0,0,3.36-12.39c.19-1.65.3-3.17.35-4.46C294.86,121.47,296.42,122.24,297.3,122.69Z"/><path class="cls-5" d="M307.45,102.86a11.14,11.14,0,0,1-7,20.89,11.43,11.43,0,0,1-3.16-1.06c-.88-.45-2.44-1.22-4.22-2.06l-3-1.43c-2.46-1.13-4.84-2.17-6.07-2.57l10.76-21C297,97.27,304.93,101.57,307.45,102.86Z"/><path class="cls-5" d="M284.31,85.69a53.31,53.31,0,0,0,10.43,9.92l-10.76,21A53.71,53.71,0,0,0,269.83,114l-4.17-.22,16-31.33Z"/><path class="cls-5" d="M260.81,114.65,279.57,78a1.19,1.19,0,0,1,1.59-.51l1.38.71a1.19,1.19,0,0,1,.52,1.59l-1.37,2.67-16,31.33-1.36,2.67a1.18,1.18,0,0,1-1.59.51h0l-1.39-.71a1.17,1.17,0,0,1-.57-1.55Z"/><line class="cls-5" x1="261.37" y1="91.8" x2="254.14" y2="88.1"/><line class="cls-5" x1="269.84" y1="80.2" x2="265.28" y2="72.22"/><line class="cls-5" x1="256.92" y1="105.45" x2="247.79" y2="106.42"/><path class="cls-5" d="M317.36,70.93A48.1,48.1,0,0,0,294.88,59.2"/><path class="cls-5" d="M303.36,151A48.37,48.37,0,0,0,321.2,74.92"/><path class="cls-5" d="M253.05,143.19a48.16,48.16,0,0,0,31.48,11.64"/><path class="cls-5" d="M237,115.34a48.25,48.25,0,0,0,11.51,23.38"/><path class="cls-5" d="M284.53,58.08a48.38,48.38,0,0,0-48.38,48.38h0"/></g><g id="freepik--Heart--inject-2"><path class="cls-5" d="M198.85,184.35c-4.06-3.63-8.27-2-10.42-.77-.43-2.46-2-6.7-7.36-7.42-5.86-.78-10.66,4.93-9.09,12.89,1.14,5.73,4.8,11,6.76,13.45.23.3.45.56.63.77h1c3.16-.13,9.52-.76,14.6-3.62C202,195.65,203.25,188.29,198.85,184.35Z"/><path class="cls-5" d="M176.05,207s-.27.49-.64,1.35"/><path class="cls-9" d="M174.39,211.14c-1.6,5.23-2.7,14.19,5.82,19.62,21.06,13.43,28.15-18.25,12-15.4-11.09,2,.64,31.31,18,25.4"/><path class="cls-5" d="M211.66,240.21c.44-.2.89-.42,1.34-.66"/></g><g id="freepik--Character--inject-2"><path class="cls-10" d="M185.69,433.76s-11.89,8.09-16.68,7.55a2.23,2.23,0,0,1-1.41-.6c-3.12-3.22-5.63-8.88-5.63-8.88s1.49-2.06,6.08,3.41l2.91-2.67-6-6.06s3.39-2.69,9.15.74c-.2-.42-3.91-8.5-1.11-19.5l-14-13.51,12.42-10.82,1-.84,2,2c1.22,1.23,2.91,2.71,4.74,4.32,4.38,3.85,9.68,8,12,8C195.34,396.76,185.69,433.76,185.69,433.76Z"/><g class="cls-11"><path class="cls-12" d="M176.5,428.46s-6.78,7-7.49,12.85a2.23,2.23,0,0,1-1.41-.6c-3.12-3.22-5.63-8.88-5.63-8.88s1.49-2.06,6.08,3.41l2.91-2.67-6-6.06s3.39-2.69,9.15.74c-.2-.42-3.91-8.5-1.11-19.5l-14-13.51,12.42-10.82,3,1.13c1.23,1.16,2.91,2.71,4.74,4.32-2.63,3.85-8.26,11.82-8.26,11.82l4.87,6.6S172.77,423.93,176.5,428.46Z"/></g><path class="cls-5" d="M185.69,433.76s-11.89,8.09-16.68,7.55a2.23,2.23,0,0,1-1.41-.6c-3.12-3.22-5.63-8.88-5.63-8.88s1.49-2.06,6.08,3.41l2.91-2.67-6-6.06s3.39-2.69,9.15.74c-.2-.42-3.91-8.5-1.11-19.5l-14-13.51,12.42-10.82,1-.84,2,2c1.22,1.23,2.91,2.71,4.74,4.32,4.38,3.85,9.68,8,12,8C195.34,396.76,185.69,433.76,185.69,433.76Z"/><path class="cls-5" d="M171,432.57a14.87,14.87,0,0,1,3.13-5.31"/><path class="cls-3" d="M392.79,339.58a33.88,33.88,0,0,1-6.73,7.26h0c-21.86,18.1-72.26,27-72.26,27s-1.69,2.53-4.29,6.13c-4.66,6.47-12.29,16.41-18.51,21.39h0c-2.63,2.11-5,3.33-6.81,3l9.46,34.93,4.23,15.16s-43.46,19-117.79-2.72c0,0-.85-9.7-.22-11.77a1,1,0,0,1,.1-.31,13.62,13.62,0,0,1,2.92-3.66s-.42-6.24-.63-12.59a85,85,0,0,1,.15-12.15c.53-3.2,2.87-10.94,4.05-14.74l.69-2.21-3.7-34.64-1.06-10-.06-.52v-.25l-.58-5.35-19.12,5.84s1,2.24,2.38,5.38c2.51,5.75,6.2,14.5,7,18a5.8,5.8,0,0,0,.24.84c1.77,5,8.51,9.64,8.51,9.64L162.65,404.4l-5.35-3.74a16.68,16.68,0,0,1-2.16,1.36,19.77,19.77,0,0,1-19,.43,28.17,28.17,0,0,1-8.94-7.92c-14.2-18.44-20.38-33.53-18.37-51.2s81.53-72.2,97.31-71.63l23.47,5.18c.51-.42,1.88-1.5,2.94-1.45,4.27.22,4.38,5.18,4.38,5.18l52.6,8.54s5.45-2.73,6.4-2.69a4.12,4.12,0,0,1,3.33,2.11s13.62-8.16,18-6.26C331.68,288.53,403.44,323.4,392.79,339.58Z"/><path class="cls-13" d="M210.05,426a39.34,39.34,0,0,1-22.77,12.35c-2.77.44-5.2.88-7.33,1.32a13.62,13.62,0,0,1,2.92-3.66s-.42-6.24-.63-12.59C188.41,427.49,199.17,432.19,210.05,426Z"/><path class="cls-13" d="M186.44,396.56l.69-2.21-3.7-34.64c5.53,7.93,25.25,34.94,38.84,37.86C236.48,400.61,198.49,406,186.44,396.56Z"/><path class="cls-13" d="M293.63,439.34c-14.85-1.69-35.84-5.43-37.94-13.2C252.42,414,268.33,406.72,291,401.41c-2.63,2.11-5,3.33-6.81,3Z"/><path class="cls-13" d="M386.05,346.85c-21.86,18.1-72.26,27-72.26,27s-1.69,2.53-4.29,6.13a84,84,0,0,1-3.21-55.85s3.88,21,20,26c0,0-12.34-9.19-8-31.31,0,0,4.21,26,31.6,33.22C363.18,355.61,376.19,351.73,386.05,346.85Z"/><path class="cls-13" d="M182.31,349.21l-.6-5.6-19.12,5.84s1,2.24,2.38,5.38c-7.31-.75-21.18,6-23.6-1.36-2.92-8.92,15-5.85,15-5.85l16.94-9.85c-3.2-13.7,4.95-24,4.95-24l1.55,9.56c.74-18.17,7.85-28.11,7.85-28.11C181.78,309.59,181.94,345,182.31,349.21Z"/><path class="cls-13" d="M180.75,383.27l-18.11,21.16-5.35-3.74a16.68,16.68,0,0,1-2.16,1.36,19.77,19.77,0,0,1-19,.43c5.87-8.12,18-20.07,32.41-24.68A144.63,144.63,0,0,0,159,394.24l3.72,3.66S172,387.32,180.75,383.27Z"/><path class="cls-13" d="M224.72,290.07c0,1.87-1.18,23,14.22,28.63S268,314.81,268,314.81s-23.61,22.78-38,10.6S224.72,290.07,224.72,290.07Z"/><path class="cls-5" d="M180.06,451.77s-.83-9.7-.21-11.76c.52-1.74,3-4,3-4s-1.31-19.66-.47-24.73c.72-4.35,4.74-17,4.74-17l-5.42-50.74-19.12,5.85s8.14,18,9.4,23.34,8.76,10.47,8.76,10.47l-18.11,21.15-5.35-3.73s-15.8,12.36-30.07-6.12-20.4-33.53-18.4-51.25,81.55-72.19,97.33-71.63l23.47,5.19c.5-.42,1.88-1.5,2.93-1.45,4.27.22,4.38,5.18,4.38,5.18l52.6,8.54s5.46-2.73,6.41-2.69a4.14,4.14,0,0,1,3.32,2.11s13.62-8.15,18-6.26c14.4,6.22,86.15,41.09,75.51,57.27-15.11,23-79,34.31-79,34.31s-21.25,32-29.62,30.52l13.69,50.09"/><path class="cls-14" d="M337.2,343.09c24.14,15.94,43.6,13,58.83-7.52,0,0,12.68-16.35,11.78-34s-5.11-75.15-60.06-60.45c-9.05,2.42-30.16,30.69-31.93,38.46-.82,3.55-9.29,21.62-17.52,40.33"/><path class="cls-4" d="M271.89,174.16s15.38-2.33,26.06,7.23c13.51,12.09,28.68,44.69,7.08,98.71,0,0-31.91-21.18-86.37-7,0,0,4.69-12.67-3.54-52.56C211.4,202.49,220.76,160.91,271.89,174.16Z"/><path class="cls-15" d="M248.58,309.72c22.76,3.69,46.94-21.51,46.94-21.51s-12.37-1.52-13.48-7.33c-3.55-18.33,10.73-41,10.73-41s-55.26,1.53-45.6,14a31.05,31.05,0,0,1,4.37,7.49c3.35,8.23,1,14.44-.75,16a2.9,2.9,0,0,1-.41.27c-3.34,1.52-17.07-.75-17.07-.75S227.81,306.35,248.58,309.72Z"/><path class="cls-5" d="M287.69,295.19s-10.5,4.2-25.87,2.95l-6.92,3.39"/><path class="cls-5" d="M248,301l-.5-4.54s-11.34-3.55-14.85-10.29"/><path class="cls-4" d="M250.79,277.4c16.92,4.42,24.87-17.28,24.87-17.28s-13.54-4-24.12,1.32C254.89,269.67,252.57,275.88,250.79,277.4Z"/><path class="cls-15" d="M293.75,228.49c4.11-23.11-.46-50.84-35.64-48.54-25.13,1.64-24.92,29.19-23.26,37.42,2.8,13.83-1.21,19.27,3.1,30.89,3.1,8.35,10.29,17.69,18.76,21.19,5.21,2.15,26.3-12.65,27.86-19.42"/><path class="cls-5" d="M249.55,221.68c-.21,2.6-.52,9-6,13.76-3.56,3.07,4.6,6.21,4.6,6.21"/><path class="cls-5" d="M243.71,212.51s-7.76-3.78-13,2.46"/><path class="cls-5" d="M256.73,212a26.25,26.25,0,0,1,16.59.66"/><path class="cls-4" d="M264.79,222.93c.24,2.23,1.74,3.9,3.35,3.72s2.72-2.12,2.48-4.35-1.74-3.89-3.35-3.72S264.55,220.7,264.79,222.93Z"/><path class="cls-5" d="M248.53,249a43.55,43.55,0,0,0,17.35-6.34s.73,9.7-7.39,11.71c-6.23,1.55-8.64-5.56-8.64-5.56"/><path class="cls-4" d="M271.35,188.75s-2.22,27.39,21.95,37.34l11.33-26.33-17.14-19-25.81-7.46c-38.57,2.41-55.17,26.37-33.76,90.22C227.92,263.55,221.93,187.51,271.35,188.75Z"/><path class="cls-15" d="M288,227.25c-.34-3.08,7.45-10.92,10.08-5.89,4.49,8.58,1.22,16-3.42,19-2.08,1.31-4.72,3.77-6.57,1.45"/><path class="cls-4" d="M241.25,224c.25,2.23,1.75,3.9,3.36,3.72s2.72-2.12,2.48-4.35-1.75-3.9-3.36-3.72S241,221.72,241.25,224Z"/><g class="cls-16"><path class="cls-17" d="M224.5,219.46c-.29,1.85-.49,3.73-.6,5.6"/><path class="cls-17" d="M267.35,183.77c-19.54-.51-37.7,11.94-42,31.49"/><path class="cls-17" d="M263.86,178.19s-28.18-6.63-38.74,12.06"/><path class="cls-17" d="M286.72,210.75a30,30,0,0,0,6.07,6.4"/><path class="cls-17" d="M275.54,181.84a76.21,76.21,0,0,0,8.94,25.46"/><path class="cls-17" d="M303.85,266.6c-.5,2.24-1.09,4.46-1.75,6.66"/><path class="cls-17" d="M302.22,229.36c4.57,10.15,4.26,22.78,2.38,33.46"/><path class="cls-17" d="M298.87,247a27.29,27.29,0,0,1-7.95,20.88"/><path class="cls-17" d="M285.88,185.11c4.79,6.48,8.35,13.43,13.9,19.35,5.85,6.23,11.7,13.37,12.8,22.15"/><path class="cls-17" d="M279.12,178.37a21.38,21.38,0,0,1,3.76,3.15"/></g><path class="cls-18" d="M375.51,328.75c-.56.12-1.12.22-1.7.3-15.12,2.16-32.08-10.38-37.8-25.43-4.52-11.89-.57-25.38,1.59-31.15.68-1.81,1.17-2.86,1.17-2.86,9.12-13,62.14,12.45,62.76,26.49S391,325.35,375.51,328.75Z"/><path class="cls-10" d="M392.1,298s-3,22.32-18.29,31.05c-15.12,2.16-32.08-10.38-37.8-25.43-4.52-11.89-.57-25.38,1.59-31.15h0C355.47,262.26,392.1,298,392.1,298Z"/><g class="cls-19"><path class="cls-12" d="M392.1,298s-3,22.32-18.29,31.05c-15.12,2.16-32.08-10.38-37.8-25.43-4.52-11.89-.57-25.38,1.59-31.15h0C355.47,262.26,392.1,298,392.1,298Z"/></g><path class="cls-5" d="M392.1,298s-3,22.32-18.29,31.05c-15.12,2.16-32.08-10.38-37.8-25.43-4.52-11.89-.57-25.38,1.59-31.15h0C355.47,262.26,392.1,298,392.1,298Z"/><path class="cls-5" d="M329.57,309.75s17.22,24.72,37.33,26.78,33-14.88,33.79-27.65"/><path class="cls-15" d="M319.89,198.2c1.51-4.23,12.37-2.81,15.82,10.39s17,45.29,17,45.29,54-79.41,63.64-82.47,5.85,10.7-7.08,29.79c0,0,12.11-2.13,15.29,0s1.63,15,3.32,19.46c2.84,7.53-3.47,9.12-3.47,9.12a13.45,13.45,0,0,1,8.43,3.21c3.47,3.25,1.73,16.68,2.72,20.48s-5.63,7-5.63,7,15.91,8.67,12.32,10.85c-6.06,3.66-9.51-.09-9.51-.09s-24.45,30.7-42.89,37.54-54.33-20.34-58.19-35.14.75-13.89-2.18-38.52S319.89,198.2,319.89,198.2Z"/><rect class="cls-20" x="339.6" y="156.37" width="82.92" height="142.69" rx="4.72" transform="matrix(0.97, -0.25, 0.25, 0.97, -45.12, 103.48)"/><path class="cls-14" d="M357.88,164.23a1.15,1.15,0,1,1-1.44-.82h0A1.16,1.16,0,0,1,357.88,164.23Z"/><path class="cls-14" d="M372.53,160.41a.72.72,0,0,1-.51.88h0a.71.71,0,0,1-.87-.52.72.72,0,0,1,.52-.88A.73.73,0,0,1,372.53,160.41Z"/><rect class="cls-21" x="360.09" y="163.31" width="9.51" height="0.82" rx="0.32" transform="translate(-29.31 96.24) rotate(-14.45)"/><path class="cls-14" d="M402.24,154.12,435.57,282a2.8,2.8,0,0,1-2,3.41L363.38,303.7a2.8,2.8,0,0,1-3.41-2L326.64,173.82a2.8,2.8,0,0,1,2-3.41l14.41-3.76a2.34,2.34,0,0,1,2.51.92l1.05,1.49a2.34,2.34,0,0,0,2.51.92l31.63-8.24a2.34,2.34,0,0,0,1.74-2l.19-1.81a2.34,2.34,0,0,1,1.74-2l14.41-3.76A2.8,2.8,0,0,1,402.24,154.12Z"/><circle class="cls-22" cx="377.49" cy="214.07" r="29.65"/><path class="cls-4" d="M411,260.66l-40,10.42a9,9,0,0,1-11-6.41h0a9,9,0,0,1,6.41-11h0l40-10.42a9,9,0,0,1,10.95,6.42h0A9,9,0,0,1,411,260.66Z"/><path class="cls-5" d="M313.79,373.89s-12.14-28.25-6-62.51"/><path class="cls-5" d="M284.17,404.41s-24.54,7.5-27,13.15,11,.89,11,.89"/><path class="cls-5" d="M299.26,288.57s-22.6,22.4-37.72,28.37"/><path class="cls-5" d="M225.21,282.55s-4.12,30.24,11.25,35.95"/><path class="cls-5" d="M181.71,343.61s-.12-39.64,7.75-51.9"/><path class="cls-5" d="M178.77,303.22s-2.21,24.62,2.76,32.65"/><path class="cls-5" d="M162.59,349.46s-17.19-5.92-20.75,1.42,10.25.83,10.25.83"/><path class="cls-5" d="M172.93,375.16s-16.88,9.51-17.75,14.95"/><path class="cls-5" d="M200.5,348.86s32.31,48.83,50.14,44.35"/><path class="cls-5" d="M222.57,417.35s-25.33,18.57-29,17"/><path class="cls-13" d="M400,338.11c1.71-1.4,2.84-2.33,3.21-2.62C402.83,335.82,401.73,336.78,400,338.11Z"/></g><path class="cls-23" d="M376.43,217.88a15.72,15.72,0,0,1-3,2,7.91,7.91,0,0,1-2.59.86,3.28,3.28,0,0,1-3.83-2.42,9.3,9.3,0,0,1-.05-4.8,20.89,20.89,0,0,1,4.79-9.26c.1-.12.33-.23.23-.43s-.32-.11-.49-.11l-2.69,0c-.17,0-.41.07-.48-.12s.17-.24.29-.34a64.53,64.53,0,0,1,11.15-7.42c1.56-.85,3.15-1.64,4.75-2.42l.4-.19c.11,0,.25-.15.35,0s0,.24-.05.35c-.78,1.81-1.45,3.67-2.06,5.54a58,58,0,0,0-2.61,10.78c0,.14,0,.34-.16.37s-.24-.14-.32-.25c-.77-1-1.45-2-2.13-3s-.73-1.1-1.64-.17A32.56,32.56,0,0,0,372.1,212a13.75,13.75,0,0,0-1.88,4.46,4.56,4.56,0,0,0-.1,1.05,1.46,1.46,0,0,0,1.56,1.53,8.84,8.84,0,0,0,3.27-.73l1.42-.57.06.12"/><path class="cls-3" d="M373.08,216.23a6.79,6.79,0,0,1,1.43-1.59,14.42,14.42,0,0,1,5.31-3.29,4.28,4.28,0,0,1,5.88,3.31,9.82,9.82,0,0,1-.38,5.21,21.52,21.52,0,0,1-4.56,7.67,87.23,87.23,0,0,1-7,6.69c-.24.22-.51.43-.85.18s-.3-.63.08-1l2.86-2.64a7.81,7.81,0,0,0,.59-.56c.16-.17.23-.37,0-.56s-.36-.08-.52.05l-1.48,1.3-2.92,2.58c-.28.24-.58.37-.9.08s-.21-.57.17-.9c1.19-1.08,2.39-2.14,3.58-3.21.21-.2.64-.41.3-.77s-.55.05-.76.23c-.57.48-1.1,1-1.66,1.47a3.56,3.56,0,0,1-.53.41.45.45,0,0,1-.61-.1.49.49,0,0,1-.07-.62,3,3,0,0,1,.46-.49,38.84,38.84,0,0,0,5.15-5.5,25,25,0,0,0,3.25-5.87,5.07,5.07,0,0,0,.39-2.5,1.75,1.75,0,0,0-1.62-1.63,5.76,5.76,0,0,0-3.41.8c-.74.37-1.43.83-2.18,1.24"/><path class="cls-23" d="M369.55,237a.51.51,0,0,1-.54-.81,14.47,14.47,0,0,1,2.11-1.87.51.51,0,0,1,.65.77,19.61,19.61,0,0,1-2,1.83,1,1,0,0,1-.19.08"/><path class="cls-23" d="M370,231.28a.5.5,0,0,1,.55.22.46.46,0,0,1,0,.58,19.6,19.6,0,0,1-2,1.84.5.5,0,0,1-.67,0,.53.53,0,0,1,0-.71,3.69,3.69,0,0,1,.73-.69l.91-.85a1.28,1.28,0,0,1,.57-.34"/><path class="cls-10" d="M370,257.29l1.76-.44q1.62-.42,2.07,1.32l.3,1.19a1.38,1.38,0,0,1-.52,1.64l2.25,3.38-1.46.38-1.81-3.23-.07,0,.89,3.46-1.35.34Zm1.67.95.54,2.1.16,0a1.15,1.15,0,0,0,.28-.1.43.43,0,0,0,.14-.5l-.31-1.18q-.11-.47-.51-.36Z"/><path class="cls-10" d="M374,256.27l3.16-.81.33,1.28-1.82.47.54,2.1,1.56-.4.33,1.28-1.56.41.54,2.1,1.82-.47.33,1.29-3.16.8Z"/><path class="cls-10" d="M380.18,258.3l1.69-.44.78,3.06a1.8,1.8,0,1,1-3.48.89L377.94,257a1.79,1.79,0,1,1,3.47-.89l.29,1.14-1.34.35-.29-1.15c-.08-.3-.25-.41-.51-.35h0c-.26.07-.35.25-.27.56l1.23,4.83c.08.3.25.42.52.35s.36-.25.28-.55l-.46-1.78-.34.09Z"/><path class="cls-10" d="M381.57,254.33l1.34-.34,2.07,8.06-1.34.34Z"/><path class="cls-10" d="M383.9,255.45a1.79,1.79,0,1,1,3.47-.89l.3,1.15-1.34.34-.3-1.14q-.11-.45-.51-.36h0c-.27.06-.36.25-.28.55l.18.72c.09.32.54.65,1.35,1a2.37,2.37,0,0,1,1.59,1.61l.25,1a1.79,1.79,0,0,1-3.47.89l-.3-1.15,1.34-.34.3,1.14c.08.3.25.42.51.35s.36-.25.28-.55l-.23-.9c-.09-.36-.54-.7-1.36-1a2.37,2.37,0,0,1-1.59-1.64Z"/><path class="cls-10" d="M390.67,252l.33,1.29-1.07.27,1.73,6.77-1.34.35-1.73-6.78-1.07.28-.33-1.29Z"/><path class="cls-10" d="M391,251.92l3.16-.81.33,1.29-1.82.46.54,2.1,1.56-.4.33,1.29-1.56.4.53,2.1,1.82-.46.33,1.28L393,260Z"/><path class="cls-10" d="M394.57,251l1.76-.45a1.53,1.53,0,0,1,2.06,1.33l.31,1.19a1.4,1.4,0,0,1-.52,1.64l2.24,3.38-1.46.37-1.8-3.23-.08,0,.89,3.47-1.34.34Zm1.67.94.54,2.1.16,0a1.14,1.14,0,0,0,.27-.09.45.45,0,0,0,.15-.5l-.31-1.19c-.08-.3-.25-.42-.51-.35Z"/><path class="cls-10" d="M398.59,250l3.16-.81.33,1.29-1.82.46.54,2.1,1.56-.4.33,1.29-1.56.4.54,2.1,1.81-.46.33,1.28-3.15.81Z"/><path class="cls-10" d="M402.18,249.05l1.86-.47c1.08-.28,1.77.17,2.06,1.33l1.17,4.57a1.56,1.56,0,0,1-1.24,2.17l-1.78.46Zm1.67.94,1.41,5.49.4-.1c.26-.06.35-.25.27-.55l-1.17-4.58q-.12-.47-.51-.36Z"/></svg>