<svg xmlns="http://www.w3.org/2000/svg" xmlns:xlink="http://www.w3.org/1999/xlink" viewBox="0 0 3710 3710"><defs><style>.cls-1{fill:none;}.cls-17,.cls-19,.cls-2{fill:#fff;}.cls-3{fill:#f5f2eb;}.cls-4{fill:#f9af02;}.cls-5{fill:#fceeca;}.cls-6{fill:#ccb989;}.cls-7{clip-path:url(#clip-path);}.cls-8{opacity:0.69;}.cls-9{fill:url(#linear-gradient);}.cls-10{fill:#8c805e;}.cls-11{fill:url(#linear-gradient-2);}.cls-12{fill:url(#linear-gradient-3);}.cls-13{fill:url(#linear-gradient-4);}.cls-14{fill:#fddf9a;}.cls-15{fill:url(#Gold);}.cls-16{fill:url(#Gold-2);}.cls-17{opacity:0.36;}.cls-18{fill:#7d5802;}.cls-19{opacity:0.19;}.cls-20{fill:#bdd0fb;}.cls-21{fill:url(#linear-gradient-5);}.cls-22{fill:url(#linear-gradient-6);}.cls-23{fill:url(#linear-gradient-7);}.cls-24{fill:url(#linear-gradient-8);}.cls-25{fill:url(#linear-gradient-9);}.cls-26{fill:url(#linear-gradient-10);}.cls-27{fill:#f6cf6d;}.cls-28{fill:#d5684c;}.cls-29{fill:#dd8670;}.cls-30{fill:#233239;}</style><clipPath id="clip-path"><polygon class="cls-1" points="2275.36 933.29 1441.22 846.99 607.07 944.58 607.07 3020.69 1441.22 2969.3 2275.36 3026.28 3108.47 2939.31 3108.47 885.03 2275.36 933.29"/></clipPath><linearGradient id="linear-gradient" x1="2586.07" y1="1088.85" x2="3264.93" y2="-134.09" gradientUnits="userSpaceOnUse"><stop offset="0" stop-color="#4f52ff"/><stop offset="1" stop-color="#4042e2"/></linearGradient><linearGradient id="linear-gradient-2" x1="2638.56" y1="1189.35" x2="3137.28" y2="1189.35" gradientUnits="userSpaceOnUse"><stop offset="0" stop-color="#dae3fe"/><stop offset="1" stop-color="#e9effd"/></linearGradient><linearGradient id="linear-gradient-3" x1="2508.8" y1="1105.8" x2="2757.68" y2="1105.8" xlink:href="#linear-gradient-2"/><linearGradient id="linear-gradient-4" x1="2684.46" y1="1143.46" x2="3363.31" y2="-79.47" xlink:href="#linear-gradient"/><linearGradient id="Gold" x1="1111.28" y1="2306.57" x2="2950.79" y2="943.96" gradientUnits="userSpaceOnUse"><stop offset="0" stop-color="#ffeba9"/><stop offset="0.5" stop-color="#fecc00"/><stop offset="1" stop-color="#f8ae00"/></linearGradient><linearGradient id="Gold-2" x1="2103.77" y1="2347.75" x2="2543.09" y2="221.02" xlink:href="#Gold"/><linearGradient id="linear-gradient-5" x1="15997.07" y1="2976.27" x2="15340.21" y2="3690.75" gradientTransform="translate(-14723.41 -63.47) rotate(0.54)" gradientUnits="userSpaceOnUse"><stop offset="0" stop-color="#09005d"/><stop offset="1" stop-color="#1a0f91"/></linearGradient><linearGradient id="linear-gradient-6" x1="15783.86" y1="3029.33" x2="15842.21" y2="3029.33" gradientTransform="translate(-14723.41 -63.47) rotate(0.54)" gradientUnits="userSpaceOnUse"><stop offset="0" stop-color="#febbba"/><stop offset="1" stop-color="#ff928e"/></linearGradient><linearGradient id="linear-gradient-7" x1="15978.64" y1="2300.21" x2="15538.14" y2="2826.99" xlink:href="#linear-gradient-5"/><linearGradient id="linear-gradient-8" x1="15849.71" y1="2840.77" x2="15192.82" y2="3555.28" xlink:href="#linear-gradient-5"/><linearGradient id="linear-gradient-9" x1="15573.58" y1="3026.32" x2="15623.95" y2="3026.32" xlink:href="#linear-gradient-6"/><linearGradient id="linear-gradient-10" x1="15898.12" y1="2214.02" x2="15367.49" y2="2848.59" xlink:href="#linear-gradient-5"/></defs><title>Tracker</title><g id="Background"><rect class="cls-2" width="3710" height="3710"/></g><g id="Illustration"><path class="cls-3" d="M2910.15,2795.12c-56.41,58.59-109.78,96.37-152,126.22C2262.48,3272.25,1675.92,3170,1551.26,3145c-184.08-36.88-539.91-108.18-797.17-406.66-389.21-451.56-328.61-1163-26.71-1632.62,55.22-85.9,346.92-562.68,939.8-639.14C2026,420.29,2444.23,513.61,2747.12,764,3382.9,1289.48,3337.64,2351.11,2910.15,2795.12Z"/><polygon class="cls-4" points="2301.62 875.75 1423.7 784.77 545.78 887.65 545.78 3076.16 1423.7 3021.99 2301.62 3082.05 3178.45 2990.37 3178.45 824.88 2301.62 875.75"/><polygon class="cls-5" points="1442.55 2972.09 608.4 3023.48 608.4 947.38 1442.55 849.78 1442.55 2972.09"/><polygon class="cls-5" points="2276.69 3029.07 1442.55 2972.09 1442.55 849.78 2276.69 936.09 2276.69 3029.07"/><polygon class="cls-5" points="3109.79 2942.1 2276.69 3029.07 2276.69 936.09 3109.79 887.83 3109.79 2942.1"/><rect class="cls-6" x="1423.66" y="849.78" width="18.89" height="2122.9"/><g class="cls-7"><g class="cls-8"><polygon class="cls-9" points="2518.19 957.04 2734.45 1122.51 2587.05 1260.71 2413.32 1099.09 2518.19 957.04"/><polygon class="cls-10" points="1100.24 1281.85 1118.28 1099.09 1433.1 1190.47 1433.1 1422.34 1100.24 1281.85"/><polygon class="cls-10" points="2902.92 2418.88 3077.52 2331.7 3101.15 2508.56 2948.54 2557.59 2902.92 2418.88"/><polygon class="cls-10" points="1257.79 2559.63 1433.1 2649.8 1607.87 2620.91 1592.08 2501.41 1433.1 2464.64 1257.79 2559.63"/><polygon class="cls-6" points="1079.03 1287.1 603.32 1454.6 613.48 1493.7 682.18 1469.51 1122.38 1608.71 1129.74 1577.16 732.87 1451.67 1073.44 1331.76 1391.16 1575.72 1347.44 1927.78 999.97 1956.5 694.41 2436.23 722.6 2460.57 1018.55 1995.92 1378.13 1966.2 1429.09 1555.89 1079.03 1287.1"/><polygon class="cls-6" points="930.55 2700.79 567.33 2342.33 590.02 2311.16 953.25 2669.62 930.55 2700.79"/><polygon class="cls-6" points="2324.3 2343.57 2107.54 1722.22 2075.02 1737.59 2189.06 2064.49 1635.23 2262.74 1645.55 2301.8 2202.32 2102.5 2291.78 2358.95 2324.3 2343.57"/><polygon class="cls-6" points="2787.34 2222.68 2681.8 2356.32 2473.36 1880.1 2448.34 1894.93 2661.4 2381.71 2662.05 2381.32 2580.77 2484.24 2606.61 2511.9 2813.18 2250.33 2787.34 2222.68"/><path class="cls-11" d="M2660.41,1397,2640,1363.69a14,14,0,0,0-1.48,1.4c11.16-12.7,162.39-225.75,261.33-365.86l12.34-17.49,225.05,264.6-24.94,28.75-197.69-232.44c-21.73,30.75-69,97.56-116.33,164.18C2667.22,1391.32,2663.6,1394.32,2660.41,1397Z"/><polygon class="cls-4" points="2206.96 1613.53 2136.44 1332.52 2050.26 1076.37 1664.48 1103.07 1662.4 1062.29 2073.64 1033.82 2169.91 1320.19 2240.65 1602.07 2206.96 1613.53"/><polygon class="cls-6" points="1098.05 1290.51 1070.06 1288.02 1084.67 1065.53 1435.94 1150.05 1430.26 1182.06 1110.23 1105.06 1098.05 1290.51"/><polygon class="cls-12" points="2582.65 1284.57 2565.13 1259.03 2711.23 1123.19 2508.8 953.56 2525.2 927.03 2757.68 1121.84 2582.65 1284.57"/><polygon class="cls-6" points="3149.17 2548.44 2916.3 1587.39 2882.53 1598.48 3058.28 2323.81 2893.88 2405.91 2904.95 2435.95 3062.91 2357.06 3081.84 2498.72 2958.85 2538.23 2966.31 2569.74 3106.92 2524.57 3115.39 2559.53 3149.17 2548.44"/><polygon class="cls-6" points="1439.11 2930.78 922.65 2691.59 935.63 2653.63 1426.55 2880.99 1566.29 2653.47 1440.68 2688.4 1226.71 2572.51 1241.52 2535.47 1444.41 2645.35 1649.44 2588.35 1439.11 2930.78"/><polygon class="cls-6" points="2561 2492.11 2209.55 2934.93 1852.48 2548.5 1651.39 2253.03 1629.38 2273.32 1831.13 2569.78 1831.79 2570.75 2190.5 2958.94 2134.77 3029.16 2160.54 3056.89 2586.78 2519.84 2561 2492.11"/></g><path class="cls-4" d="M1546.73,1596l-122.66-157.92c-274.87-112.8-587.94-229.41-830.8-242.81l1.5-36.73c248.06,13.69,565.64,132.25,843.59,246.42l3.77,1.55,128,164.83Z"/><path class="cls-4" d="M3089.37,2854.16c-267.75-191.35-570.62-402-781-483.43l-684,293.91-10.94-34.5,694.32-298.34,5.21,2c213.89,81.21,521.46,295,793,489Z"/><polygon class="cls-4" points="1753.79 1464.19 1543.8 859.02 1573.09 845.25 1783.08 1450.41 1753.79 1464.19"/><path class="cls-13" d="M2705.39,1631.7c-54.32-245.3-159-414.24-319.92-516.47L2400.6,1083c88.81,56.41,162.44,133.35,218.86,228.67,51.25,86.59,89.37,188.29,116.52,310.9Z"/><polygon class="cls-4" points="1065.66 2639.98 1039.29 2619.41 1349.6 2063.3 1375.97 2083.88 1065.66 2639.98"/><polygon class="cls-4" points="2792.54 1652.59 1880.92 1610.29 1882.17 1573.54 2786.92 1615.53 3118.82 1457.14 3130.8 1491.16 2792.54 1652.59"/><polygon class="cls-4" points="614.09 2852.12 602.72 2817.8 1430.92 2445.91 1593.64 2464.73 1590.52 2501.32 1435.28 2483.37 614.09 2852.12"/><path class="cls-4" d="M1681.4,2105.59c-355.58-4.39-688.83-25.42-858.8-231.88l22.8-25.45c161.48,196.16,487.75,216.26,836.34,220.56Z"/><polygon class="cls-4" points="1650.2 2975.72 1575.87 2460.27 1577.01 2456.07 1791.1 1661.5 1887.06 1472.38 2266.81 1233.46 2520.13 908.94 2543.51 933.67 2286.57 1262.83 1909.8 1499.88 1820.15 1676.55 1608.28 2462.87 1681.35 2969.63 1650.2 2975.72"/><polygon class="cls-4" points="3125.99 2936.23 2682.27 2001.52 1861.98 1651.7 1715.98 1611.16 1186.08 1564.53 600.97 2063.66 582.3 2034 1176.82 1526.84 1182.64 1527.35 1720.87 1574.71 1871.11 1616.43 1871.98 1616.8 2704.21 1971.72 2707.07 1977.73 3153.64 2918.44 3125.99 2936.23"/></g><ellipse class="cls-14" cx="1805.63" cy="1563.16" rx="105.95" ry="105.86"/><ellipse class="cls-4" cx="1805.63" cy="1563.16" rx="75.92" ry="75.85"/><circle class="cls-4" cx="2388.16" cy="2617.39" r="139.23" transform="translate(-1151.3 2455.3) rotate(-45)"/><path class="cls-15" d="M3089.75,1080.18c0,264.8-398.83,940.35-606.58,1273.58-16.13,25.85-50.85,41.56-115.16,41.56-30.47,0-18.49-15.77-34.61-41.63C2125.63,2020.43,1726.86,1345,1726.86,1080.18,1726.86,734.9,2032,455,2408.3,455S3089.75,734.9,3089.75,1080.18Z"/><path class="cls-16" d="M3049.46,1080.18c0,264.8-398.83,940.35-606.59,1273.58a88.2,88.2,0,0,1-149.76-.07C2085.33,2020.43,1686.56,1345,1686.56,1080.18,1686.56,734.9,1991.66,455,2368,455S3049.46,734.9,3049.46,1080.18Z"/><circle class="cls-17" cx="2384.64" cy="1108.93" r="415.91" transform="translate(-85.69 2010.99) rotate(-45)"/><circle class="cls-17" cx="2344.33" cy="1068.05" r="302.4"/><path class="cls-2" d="M2368,1636.43c-278.74,0-505.52-226.78-505.52-505.52a9.06,9.06,0,1,1,18.12,0c0,268.75,218.64,487.4,487.4,487.4s487.4-218.65,487.4-487.4-218.65-487.4-487.4-487.4c-155.41,0-297.9,71.53-390.94,196.26a9.06,9.06,0,1,1-14.52-10.83c96.5-129.36,244.28-203.55,405.46-203.55,278.74,0,505.52,226.78,505.52,505.52S2646.75,1636.43,2368,1636.43Z"/><path class="cls-18" d="M1955.58,2336.34,1035.9,2916.9a78.25,78.25,0,0,0-21,113l4.48,6a72.74,72.74,0,0,0,102.18,14.53L1993.81,2391Z"/><ellipse class="cls-19" cx="2367.1" cy="2017.91" rx="504.51" ry="495.41" transform="translate(-374.63 548.89) rotate(-12.26)"/><path class="cls-18" d="M2250,1479.23c-303,65.86-496.16,360.42-431.49,657.92s362.7,485.3,665.67,419.45,496.15-360.42,431.49-657.93S2553,1413.38,2250,1479.23Zm217,998.24c-258.47,56.18-512.72-104-567.89-357.83s109.64-505.1,368.11-561.28,512.72,104,567.88,357.83S2725.45,2421.28,2467,2477.47Z"/><path class="cls-20" d="M1873.75,2192.56a1.42,1.42,0,0,1-1.17-.94c-4.38-12.35-8.34-25-11.76-37.71a1.44,1.44,0,1,1,2.78-.75c3.4,12.61,7.33,25.22,11.69,37.49a1.45,1.45,0,0,1-.88,1.84A1.36,1.36,0,0,1,1873.75,2192.56Zm-29-151.44a1.43,1.43,0,0,1-1.25-1.38,504.42,504.42,0,0,1,7.54-107.22c17.89-100,65-192.23,136.2-266.64,72.92-76.18,166.45-128.41,270.49-151a529.44,529.44,0,0,1,292.17,18.82,1.43,1.43,0,1,1-1,2.7,526.79,526.79,0,0,0-290.59-18.71c-103.47,22.49-196.5,74.43-269,150.2-70.82,74-117.66,165.69-135.45,265.16a502.62,502.62,0,0,0-7.5,106.61,1.44,1.44,0,0,1-1.38,1.49Z"/><path class="cls-20" d="M1082.15,3041.53c-32-4.06-51.35-17.86-57.45-41-6.21-23.58,4-48.95,25.33-63.13l109.75-72.82a1.44,1.44,0,0,1,1.59,2.4l-109.75,72.82c-20.33,13.49-30,37.6-24.14,60,5.83,22.16,24.57,35.3,56,39h0a1.44,1.44,0,0,1-.35,2.86Z"/><path class="cls-20" d="M1194.21,2844.73a1.46,1.46,0,0,1-1-.64,1.43,1.43,0,0,1,.41-2l14.22-9.44a1.44,1.44,0,0,1,1.59,2.4l-14.22,9.44A1.45,1.45,0,0,1,1194.21,2844.73Z"/><path class="cls-21" d="M1037.25,3116s-7.17,38.45-10.87,76.54a26.27,26.27,0,0,0,24.85,28.7c50.75,2.59,159.31,7.74,198.29,6.37a8.55,8.55,0,0,0,7.64-11.63,19.17,19.17,0,0,0-9.69-10.4l-178.6-84.16Z"/><path class="cls-22" d="M1031.89,3093.33l5,46.11s31.28,14.93,52.9-1.34l-12.53-51.46Z"/><path class="cls-23" d="M1044.26,2227.31c-2.47,12-18.4,600.2,42,864.43a9,9,0,0,1-5.35,10.36c-9.68,3.85-28.64,9.37-51.31,9.92a15.4,15.4,0,0,1-15.18-11.21c-17.4-61.34-100.61-368.62-109-661.48-9.43-327.25.11-11.14.11-11.14l9.29-202.14Z"/><path class="cls-24" d="M830.71,3134.13s-11,19.34-22,70.9a16,16,0,0,0,13.91,19.33c16.75,1.81,42.54,4.17,63.21,4.23a16,16,0,0,0,16-17.67c-2.11-18.88-9-49.89-30.75-74.22Z"/><path class="cls-25" d="M821.76,3074.79l12.11,69.78s12.54,9.52,37.58,2.95l-5.38-75Z"/><path class="cls-26" d="M795.19,2243c-54.39,309.89,3.84,767.25,24.1,856.85a13.92,13.92,0,0,0,11.15,10.69c9.41,1.65,24.91,3.08,40.24-1.22a12.77,12.77,0,0,0,9.3-11.68c3.52-72.25,2.66-516,52.25-690.9a39.91,39.91,0,0,1,15.58-21.83l93.64-65.23,8.15-106.82Z"/><path class="cls-27" d="M1128.52,1658c-154.1-4-324.57,37.38-324.57,37.38-48.5,267.63-13.55,577.2-13.55,577.2,119,32.42,254.11-16.71,254.11-16.71C1065.41,2144,1161,1829.54,1161,1829.54c75.39-8.62,137.64-29.76,189-58-38.54-45.54-56.36-103.19-64-137.24C1231.28,1650.71,1176.05,1659.23,1128.52,1658Z"/><path class="cls-28" d="M1586,1435.32c-15-18.43-34.21-10-34.21-10-23.6,95.59-143.26,172.14-265.81,209,7.66,34,25.48,91.7,64,137.24C1553.8,1659.47,1586,1435.32,1586,1435.32Z"/><path class="cls-28" d="M1582.23,1439.93c1.54,5-16.88,12.55-27.49-8.15-.28-9.88-5.88-52.23.09-60.22,31.83-42.53,93.26-95.64,93.26-95.64,10.19,10.25,1.62,20.15,1.62,20.15l-29.85,30.5c6.08,11.23,13.53,20.73,16.93,34.27a41.39,41.39,0,0,1-4.42,30.44c-5.27,9.3-12.47,21.38-19.25,30.82C1600.29,1440,1582.23,1439.93,1582.23,1439.93Z"/><path class="cls-29" d="M1606.75,1346.42,1579.6,1369l-8.67,22.65,23.76,26.86s8.5-45,14.59-54.72S1612.31,1349.33,1606.75,1346.42Z"/><path class="cls-27" d="M861.64,1845.18,804,1695.37s-144.9,96.44-169.76,220.24c27.18,2.26,76.61,9.81,124.83,34.74C770.23,1891.89,861.64,1845.18,861.64,1845.18Z"/><path class="cls-28" d="M986.11,1986.81s-162.51,89.8-216.3,11.28c-11.17-16.3-13.73-32.43-10.79-47.74-48.22-24.93-97.65-32.48-124.83-34.74-7.49,37.32-4.1,77.12,17.49,117.52,93.86,175.67,355.44-6.27,355.44-6.27Z"/><path class="cls-28" d="M973.6,1531.38l-50.4,141.35a5.12,5.12,0,0,0,2.27,6.18c13.3,7.52,61.26,29.34,119.65-6.9a24.06,24.06,0,0,0,11.24-17.08l17.05-122.6Z"/><path class="cls-28" d="M1081.55,1401.06s52.89,101.89,45.6,142.77-74,37.31-132,3.49L955.5,1437.48Z"/><path class="cls-30" d="M998.27,1493.59a4.17,4.17,0,0,0,1.88-6.09c-4.25-6.64-12.21-20.16-14.68-32,0,0-9.62-6.29,24.77-14.18s85.71-20.15,96.74-49.26c10.76-28.38-16.11-100.27-60.62-43.62a4.17,4.17,0,0,1-6.62,0c-7.12-9.44-25.88-29.1-52.31-17.54-24.72,10.81-27.67,28.82-27.41,37.92a4.17,4.17,0,0,1-5,4.21c-12.42-2.5-42.27-4.82-56.51,25.69-11.72,25.13-4.39,39.49,2.34,46.54a4.17,4.17,0,0,1-1.85,6.9c-8.21,2.42-18.83,9.26-18,28.44,1.21,26.51,30.86,24.45,39.3,23.33a4.18,4.18,0,0,1,3.7,1.34c7.16,8.08,39.41,42.37,74.64,46.8a4.21,4.21,0,0,0,4.47-5.52l-14.83-44.51a4.2,4.2,0,0,1,2.31-5.19Z"/><path class="cls-28" d="M1004.34,1500s-38.09-26.67-41.11-4.55,34.23,32.42,52.8,24.34Z"/><path class="cls-30" d="M952.9,2128.73l88.52-309.14a9,9,0,0,1,7.62-6.49c16-1.87,62.52-7.13,116.18-11.67,64.63-5.46,139.69-9.89,184.55-6.12a9,9,0,0,1,7.39,13c-25.51,51.6-130.42,261.51-183,330.28a9.06,9.06,0,0,1-7.3,3.58l-205.39-1.91A9,9,0,0,1,952.9,2128.73Z"/><path class="cls-28" d="M974.28,2054s-12.33-50.7-7.35-68.69,14.61-41.12,46.73-36,70,18.67,70,18.67-1.91,23.43-26.33,15.87l15.14,11.72s-2.16,18.76-22.79,8.74l14.09,15.53s-8.86,15.41-24,5.53S1017.31,2060.15,974.28,2054Z"/><path class="cls-27" d="M1159.32,1893.72a26,26,0,1,0,26-26A26,26,0,0,0,1159.32,1893.72Z"/><path class="cls-27" d="M1051.44,1910.85l18-61.14a20.94,20.94,0,0,1,15.75-14.71c56.49-11.79,211.11-14.29,212.66-14.31l-.1-6.91c-6.38.1-156.84,2.54-214,14.46a27.85,27.85,0,0,0-21,19.51l-18,61.14Z"/></g></svg>